<?xml version="1.0" encoding="UTF-8"?>
<!DOCTYPE svg PUBLIC "-//W3C//DTD SVG 1.1//EN" "http://www.w3.org/Graphics/SVG/1.1/DTD/svg11.dtd">
<!-- Creator: CorelDRAW X6 -->
<svg xmlns="http://www.w3.org/2000/svg" xml:space="preserve" width="373.935mm" height="175.517mm" version="1.1" style="shape-rendering:geometricPrecision; text-rendering:geometricPrecision; image-rendering:optimizeQuality; fill-rule:evenodd; clip-rule:evenodd"
viewBox="0 0 14513 6812"
 xmlns:xlink="http://www.w3.org/1999/xlink">
 <defs>
  <style type="text/css">
   <![CDATA[
    .fil2 {fill:#5B5B5B;fill-rule:nonzero}
    .fil0 {fill:url(#id0)}
    .fil1 {fill:url(#id1)}
   ]]>
  </style>
  <linearGradient id="id0" gradientUnits="userSpaceOnUse" x1="5260.66" y1="2223.51" x2="8403.54" y2="2122.31">
   <stop offset="0" style="stop-color:#1F67A2"/>
   <stop offset="0.411765" style="stop-color:#0AA0DF"/>
   <stop offset="0.811765" style="stop-color:#04BAEC"/>
   <stop offset="1" style="stop-color:#7DDDF5"/>
  </linearGradient>
  <linearGradient id="id1" gradientUnits="userSpaceOnUse" x1="9229.25" y1="2123.79" x2="5995.02" y2="2227.9">
   <stop offset="0" style="stop-color:#B0C93A"/>
   <stop offset="0.341176" style="stop-color:#B9CE35"/>
   <stop offset="0.721569" style="stop-color:#A4BE39"/>
   <stop offset="1" style="stop-color:#88A13C"/>
  </linearGradient>
 </defs>
 <g id="Warstwa_x0020_1">
  <metadata id="CorelCorpID_0Corel-Layer"/>
  <g id="logo_x0020_krzywe.cdr">
   <g>
    <path class="fil0" d="M6829 737c132,141 659,880 767,1065 49,86 100,169 136,261 373,935 -280,1419 -319,1493 400,74 713,-300 824,-665 93,-307 61,-650 -64,-936 -265,-607 -865,-1388 -1305,-1916 -1040,933 -2209,2876 -846,4046 198,171 435,262 697,217 -877,-419 -1111,-1505 -739,-2380 117,-275 617,-1048 849,-1185z"/>
    <path class="fil1" d="M7060 1552l-289 -301c-1229,1258 -531,3290 990,3110 563,-67 1100,-544 1284,-1174 344,-1179 -577,-2660 -2046,-3187 764,625 1847,1789 1680,2774 -43,581 -456,1045 -979,1077 -366,36 -671,-131 -870,-433 -398,-542 -310,-1454 230,-1866z"/>
   </g>
   <path class="fil2" d="M8 5160l1802 0 0 383 -1314 0 0 234 1248 0 0 357 -1248 0 0 263 1323 0 0 391 -1811 0 0 -1628zm1967 0l495 0 0 590 272 0 644 -600 757 0 -940 809 1021 829 -754 0 -728 -623 -272 0 0 623 -495 0 0 -1628zm3346 -22c352,0 593,8 725,26 190,25 306,116 349,270 30,107 44,287 44,540 0,254 -14,435 -44,542 -43,154 -159,244 -349,270 -132,18 -372,26 -720,26 -354,0 -597,-8 -729,-26 -190,-26 -306,-116 -349,-270 -30,-107 -44,-291 -44,-551 0,-248 14,-425 44,-531 43,-154 159,-245 349,-270 131,-18 373,-26 724,-26zm2 422c-264,0 -422,7 -475,20 -61,16 -101,52 -120,107 -20,56 -29,165 -29,330 0,100 5,172 16,216 19,83 79,130 180,143 73,9 217,14 430,14 199,0 332,-4 398,-11 66,-7 115,-23 147,-48 29,-22 48,-55 58,-98 11,-44 16,-115 16,-213 0,-118 -4,-203 -12,-258 -8,-55 -22,-97 -43,-124 -26,-35 -70,-57 -130,-65 -60,-9 -206,-13 -436,-13zm1152 -400l505 0 436 1220 92 0 368 -1220 599 0 370 1220 93 0 439 -1220 525 0 -633 1628 -765 0 -326 -1193 -323 1193 -768 0 -612 -1628zm4576 -22c351,0 592,8 724,26 190,25 307,116 350,270 29,107 44,287 44,540 0,254 -15,435 -44,542 -43,154 -160,244 -350,270 -132,18 -372,26 -719,26 -355,0 -598,-8 -730,-26 -190,-26 -306,-116 -349,-270 -29,-107 -44,-291 -44,-551 0,-248 15,-425 44,-531 43,-154 159,-245 349,-270 131,-18 373,-26 725,-26zm1 422c-263,0 -421,7 -475,20 -61,16 -101,52 -120,107 -19,56 -29,165 -29,330 0,100 6,172 16,216 20,83 80,130 180,143 74,9 217,14 430,14 200,0 333,-4 399,-11 66,-7 114,-23 146,-48 29,-22 48,-55 59,-98 10,-44 15,-115 15,-213 0,-118 -4,-203 -12,-258 -8,-55 -22,-97 -43,-124 -26,-35 -69,-57 -130,-65 -60,-9 -205,-13 -436,-13zm1313 1228l0 -1628 1174 0c208,0 344,1 408,5 64,3 132,11 202,26 162,33 268,125 318,276 18,58 30,119 37,184 6,66 9,165 9,298 0,146 -4,256 -11,331 -8,74 -22,142 -43,203 -48,144 -148,232 -299,265 -70,16 -146,27 -226,32 -80,5 -211,8 -394,8l-1175 0zm488 -415l690 0c128,0 221,-4 281,-13 60,-8 102,-23 127,-43 27,-23 46,-60 57,-110 11,-50 17,-126 17,-226 0,-101 -5,-177 -14,-228 -10,-51 -27,-90 -50,-117 -28,-29 -67,-48 -118,-56 -51,-9 -153,-13 -304,-13l-686 0 0 806z"/>
   <path class="fil2" d="M8 4275l618 0 0 118 -377 273 388 -5 0 129 -637 0 0 -121 373 -270 -365 5 0 -129zm689 378l164 0 0 137 -164 0 0 -137zm244 137l0 -515 370 0c79,0 125,0 140,1 34,2 59,8 74,18 16,10 27,24 33,41 7,18 10,43 10,74 0,36 -5,64 -15,81 -10,17 -28,30 -54,37 23,4 40,10 51,18 25,17 38,52 38,106 0,42 -7,73 -20,93 -9,14 -21,24 -36,30 -15,7 -36,11 -63,13 -18,1 -70,2 -157,3l-371 0zm149 -312l221 0c49,0 78,-2 87,-6 12,-5 18,-17 18,-37 0,-20 -7,-33 -22,-37 -6,-1 -33,-2 -83,-2l-221 0 0 82zm0 188l222 0c46,0 73,-1 82,-1 8,-1 16,-2 21,-4 14,-6 21,-19 21,-40 0,-21 -8,-34 -24,-38 -5,-1 -39,-2 -100,-3l-222 0 0 86zm560 -13l165 0 0 137 -165 0 0 -137zm232 -378l618 0 0 118 -377 273 388 -5 0 129 -637 0 0 -121 372 -270 -364 5 0 -129zm689 378l164 0 0 137 -164 0 0 -137zm557 -155l359 0c0,8 0,13 0,14 0,72 -2,127 -6,164 -6,59 -39,95 -101,108 -26,5 -56,9 -90,11 -34,2 -86,2 -156,2 -88,0 -151,-2 -188,-7 -36,-5 -65,-14 -87,-28 -14,-10 -25,-23 -33,-38 -8,-15 -13,-36 -16,-61 -3,-23 -5,-69 -5,-139 0,-47 1,-82 4,-106 2,-24 7,-45 15,-64 14,-40 46,-64 94,-73 53,-9 134,-13 243,-13 65,0 116,1 154,4 38,4 69,9 93,17 40,12 63,38 72,79 4,21 6,49 6,84l-157 0c0,-14 -1,-24 -2,-29 -2,-5 -5,-9 -10,-13 -8,-6 -27,-10 -55,-11 -26,-2 -64,-2 -114,-2 -55,0 -93,1 -117,3 -23,3 -39,8 -47,14 -9,7 -15,19 -18,35 -3,16 -4,43 -4,81 0,44 1,74 4,91 3,17 9,29 18,36 8,7 19,11 33,12 14,2 57,3 130,4 71,0 114,-1 130,-2 15,-1 27,-3 36,-7 8,-3 13,-9 16,-16 4,-7 5,-18 5,-33 0,-3 0,-7 0,-15l-206 0 0 -102zm429 155l164 0 0 137 -164 0 0 -137z"/>
  </g>
 </g>
</svg>
