<?xml version="1.0" encoding="UTF-8" standalone="no"?>
<svg
   xmlns:dc="http://purl.org/dc/elements/1.1/"
   xmlns:cc="http://creativecommons.org/ns#"
   xmlns:rdf="http://www.w3.org/1999/02/22-rdf-syntax-ns#"
   xmlns:svg="http://www.w3.org/2000/svg"
   xmlns="http://www.w3.org/2000/svg"
   xmlns:sodipodi="http://sodipodi.sourceforge.net/DTD/sodipodi-0.dtd"
   xmlns:inkscape="http://www.inkscape.org/namespaces/inkscape"
   xml:space="preserve"
   width="373.935mm"
   height="175.517mm"
   version="1.1"
   style="shape-rendering:geometricPrecision; text-rendering:geometricPrecision; image-rendering:optimizeQuality; fill-rule:evenodd; clip-rule:evenodd"
   viewBox="0 0 14513 6812"
   id="svg37"
   sodipodi:docname="smlogo.svg"
   inkscape:version="1.0.1 (3bc2e813f5, 2020-09-07)"><metadata
   id="metadata41"><rdf:RDF><cc:Work
       rdf:about=""><dc:format>image/svg+xml</dc:format><dc:type
         rdf:resource="http://purl.org/dc/dcmitype/StillImage" /><dc:title></dc:title></cc:Work></rdf:RDF></metadata><sodipodi:namedview
   pagecolor="#ffffff"
   bordercolor="#666666"
   borderopacity="1"
   objecttolerance="10"
   gridtolerance="10"
   guidetolerance="10"
   inkscape:pageopacity="0"
   inkscape:pageshadow="2"
   inkscape:window-width="1920"
   inkscape:window-height="1014"
   id="namedview39"
   showgrid="false"
   inkscape:zoom="0.886579"
   inkscape:cx="706.64881"
   inkscape:cy="376.80291"
   inkscape:window-x="-8"
   inkscape:window-y="-8"
   inkscape:window-maximized="1"
   inkscape:current-layer="svg37" />
 <defs
   id="defs22">
  <style
   type="text/css"
   id="style2">
   <![CDATA[
    .fil2 {fill:#5B5B5B;fill-rule:nonzero}
    .fil0 {fill:url(#id0)}
    .fil1 {fill:url(#id1)}
   ]]>
  </style>
  <linearGradient
   id="id0"
   gradientUnits="userSpaceOnUse"
   x1="5260.66"
   y1="2223.51"
   x2="8403.54"
   y2="2122.31">
   <stop
   offset="0"
   style="stop-color:#1F67A2"
   id="stop4" />
   <stop
   offset="0.411765"
   style="stop-color:#0AA0DF"
   id="stop6" />
   <stop
   offset="0.811765"
   style="stop-color:#04BAEC"
   id="stop8" />
   <stop
   offset="1"
   style="stop-color:#7DDDF5"
   id="stop10" />
  </linearGradient>
  <linearGradient
   id="id1"
   gradientUnits="userSpaceOnUse"
   x1="9229.25"
   y1="2123.79"
   x2="5995.02"
   y2="2227.9">
   <stop
   offset="0"
   style="stop-color:#B0C93A"
   id="stop13" />
   <stop
   offset="0.341176"
   style="stop-color:#B9CE35"
   id="stop15" />
   <stop
   offset="0.721569"
   style="stop-color:#A4BE39"
   id="stop17" />
   <stop
   offset="1"
   style="stop-color:#88A13C"
   id="stop19" />
  </linearGradient>
 <clipPath
   clipPathUnits="userSpaceOnUse"
   id="clipPath137"><path
     id="path139"
     style="fill:#ff0000;fill-opacity:1;fill-rule:nonzero;stroke:none;stroke-width:10.2689"
     d="M 5404.0446,39.005672 V 4313.4319 H 8290.6662 V 39.005672 Z" /></clipPath><clipPath
   clipPathUnits="userSpaceOnUse"
   id="clipPath147"><path
     id="path149"
     style="fill:#ff0000;fill-opacity:1;fill-rule:nonzero;stroke:none;stroke-width:10.2689"
     d="M 6141.2788,-0.00408344 V 4372.1973 H 9117.0713 V -0.00408344 Z" /></clipPath><clipPath
   clipPathUnits="userSpaceOnUse"
   id="clipPath167"><path
     id="path169"
     style="fill:#ff0000;fill-opacity:1;fill-rule:nonzero;stroke:none;stroke-width:10.2689"
     d="m 2416.2583,4268.0041 c -0.3194,0.9325 -0.6459,1.7634 -0.9622,2.7076 9.3816,-0.031 18.7576,-0.072 28.1391,-0.1201 -0.031,-0.8153 -0.092,-1.7623 -0.1201,-2.5872 z m 1261.7901,0 c 14.3909,2.1428 28.7109,4.417 42.9608,6.8392 v -6.8392 z m -109.6486,27.4773 c -1.4294,0.1582 -3.4185,0.7712 -5.7763,1.8653 2.2965,0.4426 4.4459,1.0228 6.3981,1.7649 3.2312,-2.1306 2.8044,-4.0091 -0.6213,-3.6302 z m -1570.7192,7.6816 c 0.1212,1.3172 0.2403,2.634 0.3615,3.9511 0.2341,-1.087 0.5042,-2.1632 0.7424,-3.2491 -0.3758,-0.2485 -0.726,-0.4519 -1.1031,-0.7024 z M 48.416222,4556.9572 c -11.970644,2.0377 -24.468742,3.109 -37.124452,3.4497 -3.7317678,2.6194 -7.4861909,5.1979 -11.29177,7.7017 v 1.1833 c 7.8488962,-6e-4 15.697277,-0.041 23.546249,-0.041 2.613283,-0.6644 5.160486,-1.3293 7.621442,-2.0256 5.720191,-3.479 11.449245,-6.9454 17.248531,-10.2689 z M 0,4572.4006 v 0.3009 c 0.33378704,-0.01 0.66915292,0.01 1.0028215,0 C 0.68569497,4572.5789 0.3262662,4572.5109 0,4572.4006 Z" /></clipPath><clipPath
   clipPathUnits="userSpaceOnUse"
   id="clipPath203"><path
     id="path205"
     style="fill:#ff0000;fill-opacity:1;fill-rule:nonzero;stroke:none"
     d="m 614.91306,500.34945 c 0.41566,0.2171 0.88299,0.46264 1.20508,0.63086 1.06905,-0.20925 2.13843,-0.41799 3.20703,-0.63086 z m 124.84376,0 c 5.80632,0.62644 10.47617,1.13833 19.10938,2.04492 -0.10619,-0.6554 -0.1956,-1.33108 -0.25,-2.04492 z m 26.99414,0 c 0.76502,0.96218 1.59675,1.99727 2.59961,3.22852 0.26353,0.0312 0.52751,0.0585 0.79102,0.0898 -0.84371,-1.13634 -1.71271,-2.25011 -2.63282,-3.31836 z m 230.98038,0.17578 c -0.1515,0.0183 -0.3035,0.0322 -0.455,0.0508 -1.5045,0.18421 -3.0046,0.39443 -4.5039,0.61328 1.4159,0.0275 2.832,0.0497 4.248,0.0762 0.2502,-0.25484 0.4495,-0.47829 0.7109,-0.74024 z m -416.8007,54.81055 c 12.70495,1.68318 25.40663,3.39703 38.14062,4.77539 0.20398,0.0221 0.35494,0.0368 0.55664,0.0586 9.43546,0.0797 18.87112,0.16557 28.30665,0.23633 2.32268,-0.0796 4.64939,-0.0627 6.96679,-0.23828 14.77781,-1.11937 0.63603,-0.85949 14.36524,-1.40625 -5.75784,-0.52482 -11.51961,-0.98379 -17.28711,-1.34375 -22.37093,-1.39621 -44.80023,-1.76486 -67.21289,-2.04883 -1.30758,-0.0166 -2.56568,-0.0239 -3.83594,-0.0332 z m 788.73236,47.93751 c -0.1197,-0.0383 -0.4265,0.44696 -0.5625,0.88477 0.012,0.2274 0.031,0.45438 0.045,0.68164 0.1196,0.21094 0.2376,0.41588 0.3574,0.62695 0.063,-0.0209 0.1266,-0.0394 0.1895,-0.0606 0.038,-0.68621 0.053,-1.36624 0.016,-2.03125 0,-0.0613 -0.019,-0.0934 -0.045,-0.10156 z m -704.75189,7.36914 c -6.22102,0.48693 -12.4206,1.24178 -18.63282,1.83984 -10.3349,0.76808 -20.65903,1.71855 -31.00585,2.30469 -6.13972,0.34782 -12.29546,0.28486 -18.44141,0.4961 -7.8726,0.27059 -15.74807,0.51374 -23.61328,0.94921 -11.1514,0.61743 -22.24858,2.34333 -33.4375,2.37891 -1.30135,0.0479 -29.5715,1.09015 -29.82031,1.09375 -14.28823,0.206 -24.75376,0.235 -36.14062,-0.0371 10.18855,1.28965 20.36581,2.71948 30.5664,3.89258 17.92017,-1.62568 32.81053,-2.79167 55.71289,-4.26172 15.43718,-0.99088 30.87323,-2.03382 46.32812,-2.69336 4.20189,-0.17932 8.4119,0.11869 12.61719,0.17774 6.79185,-0.52349 13.60459,-0.83906 20.39258,-1.40235 8.44826,-1.78997 17.01766,-2.98748 25.47461,-4.73828 z" /></clipPath></defs>
 <g
   id="Warstwa_x0020_1"
   transform="translate(196.90423,1366.747)">
  <metadata
   id="CorelCorpID_0Corel-Layer" />
  <g
   id="logo_x0020_krzywe.cdr">
   <g
   id="g29">
    <path
   class="fil0"
   d="m 6829,737 c 132,141 659,880 767,1065 49,86 100,169 136,261 373,935 -280,1419 -319,1493 400,74 713,-300 824,-665 93,-307 61,-650 -64,-936 C 7908,1348 7308,567 6868,39 5828,972 4659,2915 6022,4085 c 198,171 435,262 697,217 C 5842,3883 5608,2797 5980,1922 6097,1647 6597,874 6829,737 Z"
   id="path25"
   clip-path="url(#clipPath137)"
   style="fill:url(#id0)" />
    <path
   class="fil1"
   d="M 7060,1552 6771,1251 C 5542,2509 6240,4541 7761,4361 8324,4294 8861,3817 9045,3187 9389,2008 8468,527 6999,0 c 764,625 1847,1789 1680,2774 -43,581 -456,1045 -979,1077 -366,36 -671,-131 -870,-433 -398,-542 -310,-1454 230,-1866 z"
   id="path27"
   clip-path="url(#clipPath147)"
   style="fill:url(#id1)" />
   </g>
   <path
   id="path31"
   style="stroke-width:0.0973815"
   transform="matrix(10.268892,0,0,10.268892,0,-0.0441963)"
   d="m 518.16602,500.34961 c -34.18092,0 -57.74694,0.78034 -70.50391,2.5332 -14.9231,1.96357 -25.1552,8.11096 -30.75391,18.28321 78.04969,-7.15359 125.6325,-10.04398 189.48242,-12.93164 -4.88601,-2.65809 -10.75783,-4.44825 -17.62304,-5.35157 -12.85436,-1.75286 -36.32328,-2.5332 -70.60156,-2.5332 z m 557.99608,0 c -6.9029,0 -13.2519,0.0406 -19.2851,0.10547 -12.6151,0.49108 -31.7975,1.23809 -45.5293,1.77539 -2.113,0.20146 -4.067,0.41599 -5.7872,0.65234 -18.50239,2.43454 -29.79888,11.29622 -33.98628,26.29297 -0.64777,2.36771 -1.21965,5.11769 -1.72266,8.21289 19.11638,-2.63526 39.74194,-5.48872 63.69534,-8.81836 75.1848,-10.45105 114.5992,-16.16771 132.9101,-19.07812 -0.7498,-0.47506 -1.5241,-0.9284 -2.3261,-1.35742 -29.0911,2.89287 -81.3175,9.01168 -3.6719,-1.73047 -4.0457,-1.66674 -8.6419,-2.84398 -13.791,-3.52149 -12.8544,-1.75286 -36.325,-2.5332 -70.5059,-2.5332 z m -746.42772,1.16992 -33.72461,31.41992 c 13.1638,-1.30281 26.32839,-2.59405 39.48828,-3.91601 14.44702,-1.45126 27.92707,-2.78212 40.66406,-4.01758 l 27.28906,-23.48633 z M 0.77929688,502.49219 V 661.0293 H 177.13672 V 622.95312 H 48.300781 V 597.3418 H 169.83398 v -0.91992 c -26.73593,-3.63761 -53.64016,-6.99271 -79.701168,-13.9375 -4.917841,-1.31053 -9.515048,-3.49659 -13.970703,-6.02149 -20.482697,1.17544 -40.96989,2.3739 -61.259765,-0.0684 -2.36426,-0.28459 -2.420637,-4.03433 -1.269532,-7.23828 -0.618799,-2.04243 -0.465137,-3.82183 1.119141,-4.04102 0.661352,-0.0915 1.324429,-0.15997 1.986328,-0.24414 0.187538,-0.0958 0.379123,-0.17536 0.574219,-0.22656 11.894943,-3.12144 24.382454,-2.22287 36.794922,-1.83008 -0.124104,-0.0758 -0.261159,-0.15957 -0.386719,-0.23633 h -5.419922 v -3.32031 C 23.682793,544.25944 28.056681,547.00427 9.6542969,523.44922 4.9282501,517.39988 7.6527987,512.2262 12.050781,512.44336 c 1.999083,0.0987 4.343985,1.31085 6.492188,4.06055 15.842062,20.27783 14.317446,20.49306 29.757812,29.79882 v -6.51367 H 176.25977 v -37.29687 z m 191.54882312,0 v 41.74414 c 16.0479,-2.03035 32.12095,-3.8663 48.20508,-5.60352 v -36.14062 z m 438.2168,0 1.73047,4.60156 c 14.93962,-0.64343 30.78207,-1.31336 48.35742,-2.05664 l -0.91015,-2.54492 z m 642.85348,0 c -27.3197,3.65882 -50.3114,6.75392 -69.2754,9.32422 v 52.14843 c 8.5276,-0.0117 17.0546,-0.0199 25.5821,-0.0332 7.3122,-0.0149 14.6256,-0.0395 21.9394,-0.0547 v -21.75 h 66.8028 c 14.7046,0 24.639,0.38919 29.6054,1.26563 4.9665,0.77905 8.7636,2.62906 11.4903,5.45312 2.2397,2.6293 3.8953,6.42808 4.8691,11.39453 0.101,0.57239 0.1966,1.18521 0.2871,1.82227 6.2354,-0.44578 10.1671,-0.9717 23.9961,-2.48828 9.0025,-0.6006 16.6509,-1.28595 24.1973,-1.70313 -0.1293,-2.83014 -0.2776,-5.44002 -0.4707,-7.56445 -0.6817,-6.3298 -1.8507,-12.26984 -3.6035,-17.91797 -4.8691,-14.7046 -15.191,-23.66336 -30.9668,-26.87695 -6.8167,-1.46072 -13.4395,-2.23911 -19.6719,-2.53125 -6.2324,-0.38953 -19.4771,-0.48828 -39.7324,-0.48828 z m -309.74801,1.59765 c -17.39095,0.68058 -31.99395,1.24942 -51.80664,2.02149 l -14.83594,41.23437 c 14.76625,-1.99287 32.71797,-4.4459 52.61524,-7.17773 z m -136.14062,5.65821 c -22.83611,1.08998 -44.3741,2.09858 -63.61719,2.96875 l -11.1582,36.99414 c 14.13091,-0.15003 28.2684,-0.11217 42.40039,-0.23047 l 1.25195,-4.62695 1.25586,4.59765 c 2.63993,-0.026 5.28053,-0.0504 7.91992,-0.0918 12.7457,1.17409 20.7837,1.84413 27.55469,2.47851 2.36978,-0.0534 4.7396,-0.10312 7.10937,-0.15625 z m 346.39063,6.17187 c -112.756,15.44983 -23.0909,4.57129 1.8769,2.45703 -0.5887,-0.8505 -1.2118,-1.67275 -1.8769,-2.45703 z m -489.28517,0.26367 c -18.05373,0.76615 -33.14503,1.40346 -48.15429,2.04297 l 13.47265,35.8418 c 7.20779,-0.11295 14.4152,-0.2344 21.62305,-0.34375 1.76382,-0.0103 3.12733,-0.0242 4.83789,-0.0352 7.0011,-0.61813 14.00536,-1.19623 21.01367,-1.71289 z m -66.38867,2.82227 c -72.41113,3.15643 -117.18584,5.72139 -205.46875,13.89648 -1.39444,6.42309 -2.32887,14.91523 -2.85351,25.39063 16.522,-0.31214 33.0443,-0.60716 49.5664,-0.91406 0.28543,-1.34198 0.59354,-2.57051 0.94922,-3.56641 1.85025,-5.35598 5.74528,-8.86182 11.68555,-10.41992 5.16122,-1.26596 20.54714,-1.94727 46.25586,-1.94727 22.39774,0 36.61609,0.38919 42.45898,1.26563 5.84289,0.77905 10.12824,2.92172 12.66016,6.33008 1.21933,1.56771 2.18999,3.66713 2.94531,6.23242 16.61767,-0.28431 33.23559,-0.56126 49.85352,-0.83008 -0.68526,-10.77114 -1.83695,-19.24547 -3.52539,-25.26758 -1.05613,-3.7824 -2.56522,-7.17274 -4.52735,-10.16992 z m 558.16794,0.29492 c -13.113,2.29685 -52.4625,8.091 -141.0586,20.40625 -22.0628,3.06683 -41.00411,5.6871 -58.99801,8.16992 1.07762,0.34311 2.14995,0.70532 3.21094,1.10352 0.37483,0.14067 0.47421,0.2907 0.38476,0.44531 13.36788,0.10892 26.73601,0.48734 40.10351,0.80469 2.1531,-3.36456 5.474,-5.65945 9.9668,-6.83789 5.2586,-1.26596 20.6445,-1.94727 46.2559,-1.94727 22.4951,0 36.616,0.38919 42.459,1.26563 5.9402,0.77905 10.1282,2.92172 12.6601,6.33008 0.5229,0.67232 1.0001,1.44256 1.4356,2.30273 1.6964,-0.0215 2.5207,-0.0375 4.5585,-0.0606 9.8992,-0.11201 19.7975,-0.23016 29.6973,-0.27539 5.5233,-0.0252 11.4135,-1.68978 16.8379,-1.21093 -0.7169,-8.58514 -1.7676,-15.49032 -3.1582,-20.6211 -1.0219,-3.65978 -2.4768,-6.95021 -4.3555,-9.875 z m -815.13669,18.53125 c -8.06161,0.78764 -15.80174,1.53803 -24.54687,2.40625 -18.05577,1.79259 -36.12291,3.50353 -54.18555,5.26172 l -15.50586,14.44727 H 240.5332 v -10.20118 c -16.08708,1.70715 -32.15942,3.53389 -48.20508,5.57813 v 7.04297 c 47.84147,-0.86766 95.68266,-1.75964 143.52344,-2.66992 z m 586.71094,3.83399 c 0.32803,0.076 0.65931,0.14172 0.98828,0.21484 l 0.0469,-0.12109 c -0.42183,-0.0356 -0.55843,-0.0549 -1.03516,-0.0937 z m -34.23242,4.9707 c -2.57192,-0.013 -4.77444,0.24543 -5.73242,0.66992 2.09233,-0.21909 4.18538,-0.4295 6.27734,-0.65234 -0.17973,-0.003 -0.36827,-0.0167 -0.54492,-0.0176 z m 3.45898,14.7832 c -4.68879,0.0802 -9.3777,0.15442 -14.0664,0.24024 2.41768,1.76498 2.84385,4.73178 -2.54493,11.02539 -1.71228,1.99981 -5.28089,-0.0489 -7.88476,-0.4375 -1.46589,-0.21879 -2.92538,-0.47767 -4.38086,-0.75782 l -3.54883,9.86133 c 16.29977,-0.44285 32.7881,-0.77356 49.16602,-0.83984 l 5.92383,-15.23242 c -5.31024,-0.29424 -10.60913,-0.74556 -15.89258,-1.41407 -2.3228,-0.29389 -4.64514,-1.16736 -6.77149,-2.44531 z m -842.109372,1.1582 c 0.06918,0.0439 0.139781,0.0851 0.208984,0.12891 4.953126,-0.0533 9.908858,-0.0654 14.861328,-0.12891 z m 41.029292,0 c 1.33022,0.45223 2.63852,0.81588 3.92188,1.08008 4.38549,-0.075 8.77077,-0.15254 13.15625,-0.22851 1.03782,-0.2377 2.06116,-0.53113 3.07812,-0.85157 z m 45.42579,0 c -0.26091,0.12449 -0.52273,0.24471 -0.78321,0.3711 3.02542,-0.0537 6.05076,-0.11394 9.07617,-0.16797 v -0.20313 z m 1000.52148,1.33985 c -0.6997,-0.006 -1.3968,4.1e-4 -2.0898,0.0234 -0.8418,0.0128 -1.2726,0.0205 -2.0977,0.0332 2.1315,0.002 4.263,0.003 6.3945,0.004 -0.7383,-0.0318 -1.4745,-0.054 -2.207,-0.0606 z m -158.2598,1.11328 c -12.07836,0.0469 -24.1895,0.49208 -36.28122,0.66016 -0.14562,4.70264 -0.22955,9.70223 -0.23046,15.0957 4.61682,0.1018 9.211,0.22473 13.75781,0.38867 11.48764,0.4142 22.98447,0.79818 34.47267,1.32617 0.066,-6.90321 0.3249,-12.71397 0.7773,-17.41992 -2.4814,-0.016 -4.5332,-0.024 -7.1718,-0.043 -1.7743,-0.0128 -3.5484,-0.0147 -5.3243,-0.008 z m -162.87692,1.08398 c -22.87347,2.89449 -32.00052,3.78648 -37.60156,4.12696 l 3.89062,14.23633 c 11.45059,-0.58752 22.89507,-1.36252 34.35352,-1.75977 2.63353,-0.0913 5.32666,-0.18041 7.98828,-0.27148 l -4.86719,-16.04688 c -1.2108,-0.0925 -2.53357,-0.19167 -3.76367,-0.28516 z m -138.45117,0.043 c -15.88041,0.33292 -31.7623,0.63461 -47.64453,0.93555 l 1.31836,3.50391 c 14.63413,-1.20915 30.21198,-2.53551 46.5,-3.95899 z m 710.74419,2.96875 c -7.4387,0.4125 -14.953,1.10242 -23.7657,1.70117 -13.705,1.51052 -17.5935,2.03041 -23.8476,2.47657 0.108,2.77415 0.1699,5.80523 0.1699,9.13867 0,9.73815 -0.5851,17.13874 -1.6563,22.00781 -1.0712,4.86908 -2.9214,8.47312 -5.5507,10.71289 -0.9691,0.77527 -2.2111,1.46944 -3.711,2.07813 5.5684,-0.21289 11.1367,-0.42195 16.7051,-0.63672 13.4009,-0.51687 26.8379,-0.52969 40.2129,-1.46289 0.1647,-1.17959 0.32,-2.36886 0.4512,-3.58203 0.6816,-7.30362 1.0703,-18.01668 1.0703,-32.23438 0,-3.69326 -0.031,-7.04215 -0.078,-10.19922 z m -786.32036,0.51953 c -6.0179,0.55006 -12.03659,1.08443 -18.0586,1.57618 -10.07321,0.82255 -20.147,1.63584 -30.2207,2.45117 0.0168,0.46065 0.0302,0.94449 0.0449,1.42187 6.11101,0.25819 12.22057,0.4216 18.31641,0.0254 8.38986,-0.54529 18.8066,-1.32132 29.99414,-2.18554 -0.017,-1.13957 -0.0523,-2.18478 -0.0762,-3.28907 z m 162.44922,1.20508 c -6.86467,0.4394 -18.80197,1.54375 -44.35547,4.52149 l -3.11328,10.32226 c 14.52552,-0.0682 29.05039,-0.16432 43.57226,-0.45508 z m -466.89649,0.37891 c -43.37403,0.82385 -86.74838,1.62694 -130.12305,2.41211 v 14.04492 c 5.55703,0.55056 11.76144,1.11522 18.26954,1.68359 2.53491,-0.40656 5.07375,-0.79209 7.61718,-1.14257 38.35098,-5.28478 69.69676,-9.40441 99.38477,-12.82227 z m -152.61719,2.81836 c -12.22789,0.21805 -24.45558,0.45034 -36.68359,0.66211 -3.78012,0.72236 -7.70141,0.87044 -11.82227,0.20508 -4.93301,0.0845 -9.86583,0.17337 -14.79882,0.25781 20.83522,4.5895 42.12125,7.14796 63.30468,9.90429 z m 1081.81052,1.10937 c -7.3054,0.0124 -14.6116,0.0379 -21.916,0.0527 -8.5352,0.0134 -17.0703,0.0215 -25.6055,0.0332 v 15.41211 c 15.6859,-1.9201 30.1293,-3.58073 39.8809,-4.44727 2.5437,-0.22603 5.0906,-0.505 7.6406,-0.8125 z m -115.08,0.082 c 0.1003,3.30981 0.1699,6.8758 0.1699,11 0,5.18699 -0.1498,9.5696 -0.4375,13.20313 13.979,-1.88354 30.667,-4.10154 48.6211,-6.38867 0.074,-3.58921 0.1172,-7.33938 0.1172,-11.29297 0,-2.24494 -0.027,-4.3653 -0.051,-6.49219 -16.1399,0.0127 -32.2798,0.008 -48.4199,-0.0293 z m -429.17388,4.67188 c -13.12675,1.6209 -27.63141,3.43331 -45.28515,5.68164 10.96898,0.10246 24.48123,0.13141 46.88672,0.29687 0.17838,-0.002 0.35677,-0.002 0.53515,-0.004 z m -249.77539,3.30859 c -1.33026,0.0993 -2.6599,0.20602 -3.99023,0.30469 -16.60431,1.23161 -31.00265,2.34076 -44.20312,3.29102 0.0584,5.93486 0.20436,11.39801 0.42968,16.45117 13.28265,0.80826 23.16925,1.34956 33.61914,1.81054 2.63474,-0.46309 5.26955,-0.92554 7.9043,-1.38867 2.34043,-0.33534 4.67945,-0.67974 7.01953,-1.01757 -0.54023,-4.17507 -0.79883,-9.7255 -0.79883,-16.72266 0,-0.94985 0.0134,-1.81671 0.0195,-2.72852 z m -182.15039,5.17578 c -0.007,0.28643 -0.0229,0.5871 -0.0469,0.9004 0.38947,-0.27144 0.8315,-0.58797 1.19726,-0.8379 -0.38421,-0.0212 -0.76381,-0.0409 -1.15039,-0.0625 z m 20.19727,0.9668 c -6.68973,0.82678 -13.58485,1.70603 -20.61523,2.61524 -0.11705,0.65063 -0.24155,1.3141 -0.41407,2.05273 -0.0275,0.11779 -0.0729,0.21882 -0.11523,0.32227 23.15578,1.66636 45.22247,3.16504 59.8125,4.14843 l -10.34766,-8.40039 c -8.87945,-0.0935 -18.18831,-0.32805 -28.32031,-0.73828 z m 633.88086,2.44922 c -16.29931,0.1073 -32.63881,0.46591 -48.87109,0.92969 l -5.78907,16.08593 c 7.70346,0.13821 15.40638,0.26101 23.10938,0.3379 8.28145,-0.0633 16.56326,-0.093 24.8457,-0.10938 z m 37.85742,0.26367 c 0.12084,6.19066 0.34394,11.8581 0.67188,16.97461 16.52034,0.0114 33.03913,-0.005 49.55663,-0.13281 -0.2159,-0.62396 -0.4141,-1.26319 -0.5762,-1.93555 -0.6904,-3.03783 -1.1806,-7.4733 -1.4101,-13.25195 -11.7362,-0.52671 -23.48296,-0.88496 -35.21877,-1.29297 -4.32453,-0.15035 -8.66994,-0.26487 -13.02344,-0.36133 z m -696.5332,0.44922 c -0.0946,0.0123 -0.19053,0.0248 -0.28516,0.0371 -0.54238,0.49016 -1.13378,0.94314 -1.73047,1.39062 0.009,7e-4 0.0179,10e-4 0.0274,0.002 0.67961,-0.48873 1.33784,-0.96208 1.98828,-1.42969 z m 582.07617,1.08984 c -3.69706,0.12578 -7.40145,0.2513 -11.07422,0.37891 -10.5444,0.36638 -21.07674,1.04967 -31.61328,1.61524 l 3.27734,11.99023 c 14.64017,0.25567 29.28132,0.58518 43.92188,0.89258 z M 596.2793,594.125 c -5.90075,0.79833 -11.79998,1.61397 -17.69727,2.43945 -0.045,0.80715 -0.0927,1.59326 -0.15039,2.33789 5.60685,0.0141 11.21378,0.0275 16.82031,0.041 8.52912,0.0206 19.52949,0.0803 31.5,0.1582 0.0368,-1.06987 0.074,-2.13549 0.10352,-3.24218 -7.99982,-0.39914 -17.53452,-0.94694 -30.57617,-1.73438 z m 186.10156,2.45508 c -14.63376,0.26168 -29.26935,0.33819 -43.90625,0.40625 l -0.78711,2.60937 c 3.12333,0.0684 2.73457,1.41458 3.17969,7.95313 12.8782,-0.30553 25.7578,-0.39292 38.63867,-0.34571 z m -116.34375,0.32617 0.94336,2.50781 c 17.21929,0.15061 33.47318,0.3132 47.55078,0.47656 l -0.98437,-2.75195 c -1.48233,0.0119 -2.96498,0.0153 -4.44727,0.0293 -19.81414,-0.14578 -32.6566,-0.18482 -43.0625,-0.26172 z m -473.70899,2.11133 v 3.61523 c 1.63909,-1.17574 3.11532,-2.24564 4.41602,-3.20117 -1.45914,-0.13794 -3.029,-0.27809 -4.41602,-0.41406 z m 1035.43358,0.24609 c -7.8852,0.87694 -15.7629,1.81525 -23.6387,2.77344 v 0.66797 c 7.6018,-1.04828 15.2925,-2.16833 23.6387,-3.44141 z m -1022.54295,2.43945 c -4.29709,0.74011 -8.59166,1.4997 -12.89063,2.22852 v 57.09766 h 48.20508 v -57.89844 c -5.73735,-0.44447 -11.08011,-0.89031 -16.52929,-1.33594 -11.03392,1.89308 -12.90468,2.59302 -18.78516,-0.0918 z m 979.31245,2.76758 c -12.5066,1.5818 -25.0057,3.22487 -37.5,4.90235 14.3211,-1.43567 26.2437,-2.75057 37.4629,-4.11914 0.013,-0.258 0.024,-0.52276 0.037,-0.78321 z m -911.44136,1.08399 64.82422,55.47461 h 73.42578 l -15.82226,-12.84571 c -6.19806,-0.0299 -12.39641,-0.14311 -18.59375,-0.375 -8.39357,-0.31406 -18.67587,0.23091 -27.33008,-1.625 -9.93994,2.63829 -18.47373,4.99592 -13.06445,1.69922 2.21293,-1.34867 4.51719,-2.54389 6.88672,-3.60742 -3.71269,-1.59891 -6.82639,-3.96835 -8.92969,-7.48633 -5.61862,-9.39767 21.41618,-4.82525 32.31055,-5.91992 2.19795,-0.22085 4.39738,-0.4309 6.5957,-0.64844 l -23.86914,-19.38086 c -9.87706,-0.69233 -41.6274,-2.77184 -76.4336,-5.28515 z m 978.55466,1.38476 c -18.2797,2.89096 -33.3305,5.19916 -47.5215,7.14453 v 8.21485 c 16.7623,-0.51486 24.3067,-0.62729 56.4981,-1.68164 h -8.9766 z m -803.7988,9.60743 c -11.64561,2.67974 -24.97198,6.79372 -36.12695,8.32812 0.0857,0.58001 0.17298,1.14955 0.26367,1.70508 22.30659,-2.00081 44.62937,-3.82299 66.9668,-5.43555 -0.79799,-0.076 -1.5937,-0.15325 -2.26758,-0.23633 -4.39375,-0.56553 -7.983,-1.7968 -10.7832,-3.70117 -6.6971,-0.21585 -12.48375,-0.43263 -18.05274,-0.66015 z m 735.8086,0.17382 c -22.3209,2.69562 -47.7577,5.19876 -88.6055,8.90039 6.8472,-0.0114 13.6939,-0.009 20.541,-0.01 5.5367,-0.27315 11.0742,-0.53458 16.6133,-0.74414 23.968,-0.90678 38.7152,-1.43734 50.7442,-1.85547 0.2626,-1.95824 0.4933,-4.08225 0.707,-6.29102 z m -407.34766,2.29297 c -12.77656,0.19822 -25.5414,1.49797 -38.32422,1.73633 -2.23686,0.0417 -4.47399,0.0753 -6.71094,0.11523 l -0.13086,0.4336 h -8.95898 l -0.0996,-0.27735 c -9.10215,0.14991 -18.20554,0.26768 -27.30859,0.36329 -5.88879,1.56599 -11.61011,3.76625 -17.42578,5.60937 l 0.0293,0.0781 c 23.57109,-0.40713 51.70161,-0.48304 96.89649,-0.54688 z m 142.14453,1.32227 c -1.57754,0.005 -3.15491,0.0185 -4.73242,0.0254 1.55485,0.0552 3.08748,0.1136 4.6582,0.16797 z m -101.04492,1.4414 1.2793,4.6836 c 7.32796,-0.011 16.96541,-0.0364 25.10351,-0.0508 -5.40218,-1.0337 -10.73123,-2.53007 -16.11914,-3.65235 -3.42327,-0.28888 -6.84383,-0.62748 -10.26367,-0.98047 z m -192.46289,1.49024 c -28.45532,1.65584 -63.71382,3.85724 -111.11719,6.82422 -14.6841,0.91907 -29.36251,1.94301 -44.03515,3.04297 15.33338,-0.17798 30.66584,-0.35726 45.98242,-0.82227 51.03615,-1.78341 83.13523,-2.95584 108.34765,-3.79297 0.30031,-1.6256 0.56954,-3.40124 0.82227,-5.25195 z m 784.54494,3.31445 c -12.4815,0.75843 -25.0096,0.81289 -37.5078,1.29492 -13.5818,0.52383 -27.1635,1.04235 -40.7461,1.54883 4.1816,0.51251 8.3571,1.085 12.5195,1.77149 5.0747,0.83691 1.6371,13.47528 -3.248,15.08398 -20.8911,6.87964 -43.6974,5.04655 -65.5469,7.57031 -24.5025,1.62429 -47.3543,3.2998 -70.836,4.60156 v 2.57618 h 114.4219 c 17.8208,0 30.5786,-0.29239 38.3692,-0.7793 7.7905,-0.48691 15.1911,-1.55713 22.0078,-3.11523 14.7046,-3.21359 24.4429,-11.7837 29.1172,-25.80665 0.5288,-1.53612 1.0098,-3.12048 1.4492,-4.74609 z m -729.57228,7.24219 0.15234,0.40625 c 0.31782,-0.014 0.63525,-0.0179 0.95312,-0.0332 -0.37295,-0.12215 -0.73559,-0.24944 -1.10546,-0.37305 z m 347.41988,3.31445 c -18.2878,0.0754 -36.57569,0.15001 -54.86324,0.22071 4.77442,13.28105 15.77619,21.10758 33.08784,23.47656 12.8544,1.75286 36.5195,2.53125 71.0899,2.53125 33.7914,0 57.1632,-0.77839 70.0176,-2.53125 4.2273,-0.57848 8.0649,-1.49937 11.5488,-2.72852 -3.4011,-0.39717 -6.8029,-0.78882 -10.2207,-1.06445 -4.3164,0.16187 -4.5443,0.41449 -1.1445,-8.47656 -0.1449,-0.9165 -0.2454,-1.83733 -0.3008,-2.75391 -0.032,-0.53056 0.6986,-0.34523 1.418,-0.17188 0.011,-0.0289 0.018,-0.0472 0.029,-0.0762 0.3886,-1.02018 2.169,-0.24175 3.2559,-0.34375 2.7542,-0.25845 5.5098,-0.49645 8.2656,-0.73828 10.956,-0.96144 4.4629,-0.0417 18.7442,-3.37304 0.095,-0.19303 0.1834,-0.39215 0.2754,-0.5879 -9.7668,-0.34517 -19.5344,-0.67289 -29.3008,-1.01367 -24.2937,-0.84765 -41.5217,-1.36276 -57.0293,-1.75195 -15.0826,0.20583 -30.1664,0.59175 -45.2461,0.29687 -6.5492,-0.12806 -13.0886,-0.49541 -19.627,-0.91406 z m -185.61324,0.58008 c -7.56644,0.0131 -13.07879,0.0188 -19.95118,0.0293 l 0.54297,1.98633 c 5.98392,-0.62827 11.37114,-1.20144 19.40821,-2.01563 z m -147.32422,0.39844 c -4.41448,0.047 -8.61021,0.10831 -12.80274,0.17383 l 8.54688,22.73828 h 74.78906 l 3.16797,-11.70118 c -22.30062,-1.17168 -49.79093,-4.92012 -73.70117,-11.21093 z m 569.91606,1.125 c -0.057,0.099 -0.1146,0.19792 -0.1719,0.29687 0.7613,1.1158 1.5196,2.23397 2.3008,3.33594 0.077,-0.004 0.1789,-0.0112 0.2558,-0.0156 0.075,-0.004 -0.1673,0.14344 -0.2109,0.082 -0.015,-0.0218 -0.029,-0.0446 -0.045,-0.0664 -1.3103,0.0758 -2.8936,0.17658 -4.3282,0.26367 -0.053,0.098 -0.1093,0.19473 -0.1621,0.29297 3.9488,-0.26736 7.7719,-0.53071 11.8535,-0.80078 5.8677,-0.51844 11.7297,-1.18288 17.5899,-1.86719 -9.0277,-0.49277 -18.0541,-1.02129 -27.082,-1.52148 z m -643.48247,0.66992 c -24.78819,0.83277 -55.93585,1.96927 -104.7168,3.67383 -31.84134,0.96581 -63.6882,3.41014 -95.52929,4.28906 5.96352,6.98392 14.97884,11.30551 27.07617,12.96094 12.85436,1.75286 36.51914,2.53125 70.99219,2.53125 33.88876,0 57.25892,-0.77839 70.11328,-2.53125 16.17235,-2.21306 26.83797,-9.1878 32.06445,-20.92383 z m 289.19922,2.07617 c -28.46978,2.33197 -56.95517,4.42087 -85.46875,5.97852 l 3.57031,13.0625 h 74.4961 z m 327.76365,2.78516 c -5.2368,0.38528 -10.2284,0.76893 -14.0918,1.11523 -1.2245,0.10977 -2.4507,0.21536 -3.6758,0.32227 6.505,-0.40562 13.0751,-0.84195 19.6465,-1.28321 -0.7748,-0.0458 -1.3934,-0.0974 -1.8789,-0.15429 z"
   clip-path="url(#clipPath203)" />
   <path
   class="fil2"
   d="m 8,4275 h 618 v 118 l -377,273 388,-5 v 129 H 0 v -121 l 373,-270 -365,5 z m 689,378 h 164 v 137 H 697 Z m 244,137 v -515 h 370 c 79,0 125,0 140,1 34,2 59,8 74,18 16,10 27,24 33,41 7,18 10,43 10,74 0,36 -5,64 -15,81 -10,17 -28,30 -54,37 23,4 40,10 51,18 25,17 38,52 38,106 0,42 -7,73 -20,93 -9,14 -21,24 -36,30 -15,7 -36,11 -63,13 -18,1 -70,2 -157,3 z m 149,-312 h 221 c 49,0 78,-2 87,-6 12,-5 18,-17 18,-37 0,-20 -7,-33 -22,-37 -6,-1 -33,-2 -83,-2 h -221 z m 0,188 h 222 c 46,0 73,-1 82,-1 8,-1 16,-2 21,-4 14,-6 21,-19 21,-40 0,-21 -8,-34 -24,-38 -5,-1 -39,-2 -100,-3 h -222 z m 560,-13 h 165 v 137 h -165 z m 232,-378 h 618 v 118 l -377,273 388,-5 v 129 h -637 v -121 l 372,-270 -364,5 z m 689,378 h 164 v 137 h -164 z m 557,-155 h 359 c 0,8 0,13 0,14 0,72 -2,127 -6,164 -6,59 -39,95 -101,108 -26,5 -56,9 -90,11 -34,2 -86,2 -156,2 -88,0 -151,-2 -188,-7 -36,-5 -65,-14 -87,-28 -14,-10 -25,-23 -33,-38 -8,-15 -13,-36 -16,-61 -3,-23 -5,-69 -5,-139 0,-47 1,-82 4,-106 2,-24 7,-45 15,-64 14,-40 46,-64 94,-73 53,-9 134,-13 243,-13 65,0 116,1 154,4 38,4 69,9 93,17 40,12 63,38 72,79 4,21 6,49 6,84 h -157 c 0,-14 -1,-24 -2,-29 -2,-5 -5,-9 -10,-13 -8,-6 -27,-10 -55,-11 -26,-2 -64,-2 -114,-2 -55,0 -93,1 -117,3 -23,3 -39,8 -47,14 -9,7 -15,19 -18,35 -3,16 -4,43 -4,81 0,44 1,74 4,91 3,17 9,29 18,36 8,7 19,11 33,12 14,2 57,3 130,4 71,0 114,-1 130,-2 15,-1 27,-3 36,-7 8,-3 13,-9 16,-16 4,-7 5,-18 5,-33 0,-3 0,-7 0,-15 h -206 z m 429,155 h 164 v 137 h -164 z"
   id="path33"
   clip-path="url(#clipPath167)" />
  </g>
 </g>
</svg>
